<?xml version="1.0" encoding="utf-8"?>
<!-- Generator: Adobe Illustrator 26.0.0, SVG Export Plug-In . SVG Version: 6.00 Build 0)  -->
<svg version="1.1" id="Layer_1" xmlns="http://www.w3.org/2000/svg" xmlns:xlink="http://www.w3.org/1999/xlink" x="0px" y="0px"
	 viewBox="0 0 512 512" style="enable-background:new 0 0 512 512;" xml:space="preserve">
<style type="text/css">
	.st0{fill:#FFFFFF;}
</style>
<g>
	<g>
		<g>
			<path class="st0" d="M228,192H8c-4.8,0-8-4-8-8v-51.2c0-22.4,18.4-41.6,41.6-41.6h213.6c4.8,0,8,4,8,8s-4,8-8,8H40.8
				C27.2,107.2,16,118.4,16,132v43.2h212c4.8,0,8,4,8,8S232.8,192,228,192L228,192z"/>
		</g>
		<g>
			<path class="st0" d="M40.8,488c-11.2,0-21.6-4-28.8-12c-8-8-12-18.4-12-29.6V183.2c0-4.8,4-8,8-8h220c4.8,0,8,4,8,8s-4,8-8,8H16
				v254.4c0,6.4,2.4,12.8,7.2,17.6s11.2,7.2,17.6,7.2H416c13.6,0,24.8-11.2,24.8-24.8v-160c0-4.8,4-8,8-8s8,4,8,8v160
				c0,22.4-18.4,41.6-41.6,41.6H40.8L40.8,488z"/>
		</g>
		<g>
			<path class="st0" d="M72,149.6H54.4c-4.8,0-8-4-8-8s4-8,8-8H72c4.8,0,8,4,8,8S76.8,149.6,72,149.6z"/>
		</g>
		<g>
			<path class="st0" d="M111.2,149.6H93.6c-4.8,0-8-4-8-8s4-8,8-8h17.6c4.8,0,8,4,8,8S116,149.6,111.2,149.6z"/>
		</g>
		<g>
			<path class="st0" d="M150.4,149.6h-17.6c-4.8,0-8-4-8-8s4-8,8-8h17.6c4.8,0,8,4,8,8S155.2,149.6,150.4,149.6z"/>
		</g>
		<g>
			<path class="st0" d="M196.8,336.8H80c-13.6,0-24.8-11.2-24.8-24.8v-69.6c0-13.6,11.2-24.8,24.8-24.8h116.8
				c13.6,0,24.8,11.2,24.8,24.8V312C221.6,325.6,210.4,336.8,196.8,336.8z M196.8,233.6H80c-4.8,0-8,4-8,8V312c0,4.8,4,8,8,8h116.8
				c4.8,0,8-4,8-8v-69.6C204.8,237.6,200.8,233.6,196.8,233.6z"/>
		</g>
		<g>
			<path class="st0" d="M280.8,287.2H272c-4.8,0-8-4-8-8s4-8,8-8h8.8c4.8,0,8,4,8,8S284.8,287.2,280.8,287.2z"/>
		</g>
		<g>
			<path class="st0" d="M398.4,340H272c-4.8,0-8-4-8-8s4-8,8-8h126.4c4.8,0,8,4,8,8S402.4,340,398.4,340z"/>
		</g>
		<g>
			<path class="st0" d="M398.4,392.8H59.2c-4.8,0-8-4-8-8s4-8,8-8h339.2c4.8,0,8,4,8,8S402.4,392.8,398.4,392.8z"/>
		</g>
		<g>
			<path class="st0" d="M398.4,445.6H59.2c-4.8,0-8-4-8-8s4-8,8-8h339.2c4.8,0,8,4,8,8S402.4,445.6,398.4,445.6z"/>
		</g>
		<g>
			<path class="st0" d="M387.2,290.4h-12.8c-10.4,0-19.2-8-20.8-17.6l-3.2-20c0-1.6-1.6-2.4-2.4-3.2c-3.2-0.8-5.6-2.4-8.8-3.2
				c-1.6-0.8-2.4-0.8-4,0l-16,12c-8,5.6-20,4.8-27.2-2.4l-9.6-9.6c-7.2-7.2-8-18.4-2.4-27.2l12-16c0.8-1.6,0.8-3.2,0-4
				c-1.6-2.4-2.4-5.6-4-8.8c-0.8-1.6-1.6-2.4-3.2-2.4l-19.2-3.2c-10.4-1.6-17.6-10.4-17.6-20.8v-13.6c0-10.4,7.2-19.2,17.6-20.8
				l19.2-3.2c1.6,0,2.4-1.6,3.2-2.4c0.8-3.2,2.4-5.6,4-8.8c0.8-1.6,0.8-3.2,0-4l-12-16c-6.4-8-4.8-19.2,1.6-27.2l9.6-9.6
				c7.2-7.2,19.2-8,27.2-1.6l15.2,12c1.6,1.6,3.2,0.8,4,0c3.2-1.6,5.6-2.4,8.8-4c1.6-0.8,2.4-1.6,3.2-3.2l3.2-20
				C355.2,32,364,24,374.4,24h12.8c10.4,0,19.2,8,20.8,17.6l3.2,20c0,1.6,1.6,2.4,2.4,3.2c3.2,0.8,5.6,2.4,8.8,3.2
				c1.6,0.8,2.4,0.8,4,0l16-12c8-6.4,20-4.8,27.2,2.4l9.6,9.6c7.2,7.2,8,18.4,2.4,27.2l-12,16c-0.8,1.6-0.8,3.2,0,4
				c1.6,2.4,2.4,5.6,4,8.8c0.8,1.6,1.6,2.4,3.2,2.4l19.2,3.2c10.4,1.6,17.6,10.4,17.6,20.8V164c0,10.4-7.2,19.2-17.6,20.8l-19.2,3.2
				c-1.6,0-2.4,1.6-3.2,2.4c-0.8,3.2-2.4,5.6-3.2,8.8c-0.8,1.6-0.8,3.2,0,4.8l12,16c5.6,8,4.8,19.2-1.6,27.2l-12,8.8
				c-7.2,7.2-19.2,8-27.2,1.6l-15.2-12c-1.6-1.6-3.2-0.8-4,0c-3.2,1.6-5.6,2.4-8.8,4c-1.6,0.8-2.4,1.6-2.4,3.2l-3.2,20
				C406.4,282.4,397.6,290.4,387.2,290.4L387.2,290.4z M336.8,228.8c3.2,0,6.4,0.8,8.8,2.4c2.4,0.8,4.8,2.4,7.2,3.2
				c7.2,2.4,12,8.8,13.6,16l3.2,20c0,2.4,2.4,4,4,4h12.8c2.4,0,4-1.6,4-3.2l3.2-20c0.8-7.2,6.4-13.6,13.6-16
				c2.4-0.8,4.8-1.6,7.2-3.2c6.4-3.2,15.2-2.4,21.6,2.4l16,12c2.4,1.6,4,0.8,5.6-0.8l9.6-9.6c1.6-1.6,1.6-4,0-5.6l-12-16
				c-4.8-6.4-5.6-14.4-2.4-20.8c0.8-2.4,2.4-4.8,3.2-7.2c2.4-7.2,8.8-12.8,16-13.6l19.2-3.2c2.4,0,3.2-2.4,3.2-4V152
				c0-2.4-1.6-4-3.2-4l-19.2-3.2c-7.2-0.8-13.6-6.4-16-13.6c-0.8-2.4-1.6-4.8-3.2-7.2c-3.2-7.2-2.4-15.2,1.6-21.6l12-16
				c1.6-1.6,0.8-4,0-5.6l-9.6-9.6c-0.8-0.8-2.4-1.6-3.2-1.6s-1.6,0-2.4,0.8l-15.2,12c-5.6,4.8-14.4,5.6-21.6,2.4
				c-2.4-0.8-4.8-2.4-7.2-3.2c-7.2-2.4-12-8.8-13.6-16l-3.2-20c0-2.4-2.4-4-4-4h-12.8c-2.4,0-4,1.6-4,3.2L367.2,64
				c-0.8,7.2-6.4,13.6-13.6,16c-2.4,0.8-4.8,1.6-7.2,3.2c-6.4,3.2-15.2,2.4-21.6-2.4l-16-12c-2.4-2.4-4-0.8-5.6,0.8l-9.6,9.6
				c-1.6,1.6-1.6,4,0,5.6l12,16c4,6.4,4.8,14.4,1.6,20.8c-0.8,2.4-2.4,4.8-3.2,7.2c-2.4,7.2-8.8,12.8-16,13.6l-19.2,3.2
				c-2.4,0-3.2,2.4-3.2,4v13.6c0,2.4,1.6,4,3.2,4l19.2,3.2c7.2,0.8,13.6,6.4,16,13.6c0.8,2.4,1.6,4.8,3.2,7.2
				c3.2,7.2,2.4,15.2-2.4,21.6l-12,16c-1.6,1.6-0.8,4,0,5.6l9.6,9.6c1.6,1.6,3.2,2.4,5.6,0.8l16-12
				C328,230.4,332.8,228.8,336.8,228.8L336.8,228.8z"/>
		</g>
		<g>
			<path class="st0" d="M380.8,210.4c-29.6,0-53.6-24-53.6-53.6s24-53.6,53.6-53.6s53.6,24,53.6,53.6S410.4,210.4,380.8,210.4z
				 M380.8,120c-20.8,0-36.8,16.8-36.8,36.8c0,20.8,16.8,36.8,36.8,36.8s36.8-16.8,36.8-36.8S400.8,120,380.8,120z"/>
		</g>
	</g>
</g>
</svg>
