<?xml version="1.0" encoding="utf-8"?>
<!-- Generator: Adobe Illustrator 26.0.0, SVG Export Plug-In . SVG Version: 6.00 Build 0)  -->
<svg version="1.1" id="Layer_5" xmlns="http://www.w3.org/2000/svg" xmlns:xlink="http://www.w3.org/1999/xlink" x="0px" y="0px"
	 viewBox="0 0 512 512" style="enable-background:new 0 0 512 512;" xml:space="preserve">
<style type="text/css">
	.st0{fill:#FFFFFF;}
</style>
<g>
	<path class="st0" d="M264,272h-16c-4.4,0-8-3.6-8-8h-16c0,13.2,10.8,24,24,24v16h16v-16c13.2,0,24-10.8,24-24s-10.8-24-24-24h-16
		c-4.4,0-8-3.6-8-8s3.6-8,8-8h16c4.4,0,8,3.6,8,8h16c0-13.2-10.8-24-24-24v-16h-16v16c-13.2,0-24,10.8-24,24s10.8,24,24,24h16
		c4.4,0,8,3.6,8,8S268.4,272,264,272z"/>
	<path class="st0" d="M488,476.7l-82.3-82.3l-11.3,11.3l82.3,82.3H456v16h48v-48h-16V476.7z"/>
	<path class="st0" d="M488,400h-16v12.7l-42.3-42.3l-11.3,11.3l69.7,69.7V400z"/>
	<path class="st0" d="M370.3,429.7l42.3,42.3H392v16h59.3l-69.7-69.7L370.3,429.7z"/>
	<path class="st0" d="M24,35.3l82.3,82.3l11.3-11.3L35.3,24H56V8H8v48h16L24,35.3z"/>
	<path class="st0" d="M24,112h16V99.3l42.3,42.3l11.3-11.3L24,60.7L24,112z"/>
	<path class="st0" d="M141.7,82.3L99.3,40H120V24H60.7l69.7,69.7L141.7,82.3z"/>
	<path class="st0" d="M248,8v73.5c-4.2,1.2-8.1,3.3-11.3,6.5c-39,39-62.6,90.7-66.5,145.7l-1,14.3H8v256h256v-72.3
		c29.9-2.3,51.5-16.4,52.4-17l4.7-3.1l-4.7-18.9c14.9-3.5,25.4-7.2,29.1-8.6H408v-8c0-35.3-36.8-62-61.4-75.8L344,264h160V8L248,8z
		 M248,99.3c4.3-4.3,11.7-4.3,16,0c8.9,8.9,16.9,18.5,24,28.7h-64C231.1,117.8,239.1,108.2,248,99.3z M213.9,144h84.3
		c15.8,27.6,25.4,58.6,27.8,90.9l7.5,104.4c-13.8,4.5-43.4,12.7-77.4,12.7s-63.6-8.2-77.4-12.7l7.5-104.4
		C188.4,202.6,198,171.6,213.9,144L213.9,144z M120.9,368c4.5-20.1,25.2-37.1,43.1-48.4l-3.5,48.4H120.9z M24,488V264h144l-2.6,36.2
		C140.8,314,104,340.7,104,376v8h62.5c3.7,1.4,14.2,5.1,29.1,8.6l-4.7,18.9l4.7,3.1c1,0.7,22.5,14.7,52.4,17V488L24,488z
		 M302.8,404.1c-8,4.2-25.5,11.9-46.8,11.9c-21.1,0-38.7-7.7-46.8-11.9l2-8.2c13.2,2.4,28.5,4.1,44.7,4.1s31.5-1.8,44.7-4.1
		L302.8,404.1z M256,384c-35.8,0-67.3-9.3-79.6-13.5l1.1-14.8c16,5,45.3,12.3,78.5,12.3s62.6-7.4,78.5-12.3l1.1,14.8
		C323.3,374.7,291.9,384,256,384z M391.1,368h-39.6l-3.5-48.4C365.9,330.9,386.6,347.9,391.1,368z M488,248H342.9l-1-14.3
		c-3.9-55-27.6-106.7-66.5-145.7c-3.2-3.2-7.1-5.3-11.3-6.5V24h224V248z"/>
	<path class="st0" d="M456,72h16V40h-64v16h48V72z"/>
	<path class="st0" d="M456,120h16v16h-16V120z"/>
	<path class="st0" d="M456,152h16v16h-16V152z"/>
	<path class="st0" d="M456,88h16v16h-16V88z"/>
	<path class="st0" d="M56,440H40v32h64v-16H56V440z"/>
	<path class="st0" d="M40,376h16v16H40V376z"/>
	<path class="st0" d="M40,408h16v16H40V408z"/>
	<path class="st0" d="M40,344h16v16H40V344z"/>
</g>
</svg>
