<svg id="Layer_1" data-name="Layer 1" xmlns="http://www.w3.org/2000/svg" viewBox="0 0 281.69 61.99"><defs><style>.cls-1{fill:#fff;}.cls-2,.cls-3{fill:#64c9d6;}.cls-3{fill-rule:evenodd;}</style></defs><title>Logo</title><polygon class="cls-1" points="150.72 35.67 150.72 14.08 157.27 14.08 157.27 22.42 165.94 14.08 173.95 14.08 164.69 23.01 174.28 35.67 166.95 35.67 160.44 27.07 157.27 30.14 157.27 35.67 150.72 35.67"/><path class="cls-1" d="M125.86,31.22V18.53q0-4.46,5.56-4.45H146.8V18H133.54c-.76,0-1.14.31-1.14.92V30.83c0,.61.38.92,1.14.92H146.8v3.92H131.42q-5.56,0-5.56-4.45Z"/><path class="cls-1" d="M96.9,35.67l9.32-21.59h8.18l9.33,21.59h-6.41c-3.18-7.4-3.48-8.07-7-16.19-3.64,8.39-3.67,8.43-7,16.19Z"/><polygon class="cls-1" points="75.8 18 75.8 14.08 100.01 14.08 100.01 18 91.17 18 91.17 35.67 84.63 35.67 84.63 18 75.8 18"/><path class="cls-1" d="M52.56,35.67V31.75H66.47c.76,0,1.14-.31,1.14-.92V27.26c0-.61-.38-.91-1.14-.91H58.13c-3.71,0-5.57-1.49-5.57-4.45V18.53q0-4.46,5.57-4.45H72.52V18H60.25c-.76,0-1.14.31-1.14.92v2.59c0,.61.38.91,1.14.91H68.6c3.7,0,5.56,1.49,5.56,4.45v4.35c0,3-1.86,4.45-5.56,4.45Z"/><path class="cls-1" d="M52.56,42.3v-.82h6.83v.82H56.66v5.61H55.29V42.3ZM73,47.91V41.48h6v.82H74.36v1.76h4.09v.83H74.36v2.19h4.58v.83Zm19.85-1.17V42.65c0-.78.49-1.17,1.46-1.17h4.49v.82h-4.2c-.26,0-.39.11-.39.32v4.15c0,.21.13.31.39.31h4.2v.83H94.3c-1,0-1.46-.39-1.46-1.17Zm19.85,1.17V41.48h1.36v2.58h3.7V41.48h1.37v6.43h-1.37v-3h-3.7v3Zm20.52,0V41.48h1.56l3.61,4.75V41.48h1.36v6.43h-1.56l-3.6-4.76v4.76Zm20.63-1.17V42.65c0-.78.48-1.17,1.46-1.17h3.51c1,0,1.46.39,1.46,1.17v4.09c0,.78-.49,1.17-1.46,1.17H155.3c-1,0-1.46-.39-1.46-1.17Zm1.36,0c0,.21.13.31.39.31h2.93c.26,0,.39-.1.39-.31V42.62c0-.21-.13-.32-.39-.32h-2.93c-.26,0-.39.11-.39.32Zm19.17,1.14V41.48h1.36v5.6H180v.83Zm19.16-1.17V42.65c0-.78.49-1.17,1.46-1.17h3.51c1,0,1.46.39,1.46,1.17v4.09c0,.78-.49,1.17-1.46,1.17H195c-1,0-1.46-.39-1.46-1.17Zm1.36,0c0,.21.13.31.39.31h2.93c.26,0,.39-.1.39-.31V42.62c0-.21-.13-.32-.39-.32h-2.93c-.26,0-.39.11-.39.32Zm19.17,0V42.65c0-.78.48-1.17,1.46-1.17H220v.82h-4.19c-.26,0-.39.11-.39.32v4.15c0,.21.13.31.39.31H219V44.89h-1.66v-.83h3v3.85h-4.87c-1,0-1.46-.39-1.46-1.17Zm20.43,1.17V41.48h1.36v6.43Zm15.46,0V41.48h5.94v.82h-4.58v1.76h4.09v.83h-4.09v2.19h4.58v.83Zm19.74,0v-.83h4.39c.26,0,.39-.1.39-.31V45.2c0-.21-.13-.31-.39-.31h-2.92q-1.47,0-1.47-1.17V42.65q0-1.17,1.47-1.17h4.19v.82h-3.9c-.26,0-.39.11-.39.32v1.13c0,.21.13.31.39.31h2.92q1.47,0,1.47,1.17v1.51q0,1.17-1.47,1.17Z"/><path class="cls-2" d="M177.76,35.67V14.09h16c3.7,0,5.56,1.48,5.56,4.44v4.52c0,2.61-1.48,4.09-4.42,4.44l5.4,8.18h-7.07l-5.39-8.18H184.3v8.18Zm6.54-12.1h7.36c.76,0,1.14-.31,1.14-.92V18.93c0-.62-.38-.92-1.14-.92H184.3Zm19.29,7.65V18.53c0-3,1.86-4.44,5.56-4.44H220.6c3.7,0,5.56,1.48,5.56,4.44V31.22c0,3-1.86,4.45-5.56,4.45H209.15c-3.7,0-5.56-1.49-5.56-4.45Zm6.54-.39c0,.61.39.91,1.15.91h7.19c.77,0,1.15-.3,1.15-.91V18.93c0-.62-.38-.92-1.15-.92h-7.19c-.76,0-1.15.3-1.15.92Zm20.61.39V18.53q0-4.44,5.56-4.44h11.44q5.56,0,5.56,4.44V31.22c0,3-1.85,4.45-5.56,4.45H236.3c-3.71,0-5.56-1.49-5.56-4.45Zm6.54-.39c0,.61.38.91,1.14.91h7.19c.77,0,1.15-.3,1.15-.91V18.93c0-.62-.38-.92-1.15-.92h-7.19c-.76,0-1.14.3-1.14.92Zm20.6,4.84V14.09h20.6V18H264.41v4.74h12.43v3.92H264.41v9Z"/><polygon class="cls-3" points="110.31 25.47 115.02 35.67 105.61 35.67 110.31 25.47"/><path class="cls-2" d="M24.28,3,42.8,13.7a1.68,1.68,0,0,1,0,2.9L24.26,27.33a1.67,1.67,0,0,1-1.69,0L4.05,16.58a1.66,1.66,0,0,1-.6-2.27,1.68,1.68,0,0,1,.62-.62L22.59,3a1.65,1.65,0,0,1,1.69,0ZM38.64,15.14,23.43,6.33,8.21,15.14,23.43,24Z"/><path class="cls-1" d="M41.13,24.51a1.66,1.66,0,0,1,1.67,2.88L24.26,38.13a1.7,1.7,0,0,1-1.69,0l-16-9.28v6.6l16.87,9.77L41.13,35a1.66,1.66,0,0,1,2.27.61,1.59,1.59,0,0,1,.23.84h0V46.84a1.69,1.69,0,0,1-.94,1.51L24.26,59a1.65,1.65,0,0,1-1.69,0L4.05,48.28A1.66,1.66,0,0,1,5.72,45.4L23.43,55.66l16.86-9.77v-6.6l-16,9.27a1.65,1.65,0,0,1-1.69,0L4.16,37.89a1.66,1.66,0,0,1-.94-1.49V26h0a1.59,1.59,0,0,1,.23-.84,1.66,1.66,0,0,1,2.27-.6L23.43,34.76Z"/></svg>