<?xml version="1.0" encoding="utf-8"?>
<!-- Generator: Adobe Illustrator 26.0.0, SVG Export Plug-In . SVG Version: 6.00 Build 0)  -->
<svg version="1.1" id="Layer_1" xmlns="http://www.w3.org/2000/svg" xmlns:xlink="http://www.w3.org/1999/xlink" x="0px" y="0px"
	 viewBox="0 0 512 512" style="enable-background:new 0 0 512 512;" xml:space="preserve">
<style type="text/css">
	.st0{fill:#FFFFFF;}
</style>
<g>
	<path class="st0" d="M212.3,473.6c4.1,0,7.5-3.3,7.5-7.5c0-4.2-3.3-7.5-7.5-7.5h-64.2c-4.1,0-7.5,3.3-7.5,7.5
		c0,4.2,3.3,7.5,7.5,7.5H212.3z"/>
	<path class="st0" d="M333.3,252.4c-4.1,0-7.5,3.3-7.5,7.5v204.5c0,11.3-9.2,20.6-20.6,20.6H55.3c-11.3,0-20.6-9.2-20.6-20.6V172.1
		c0-4.1-3.3-7.5-7.5-7.5s-7.5,3.3-7.5,7.5v292.2c0,19.6,16,35.6,35.6,35.6h249.9c19.6,0,35.6-16,35.6-35.6V259.9
		C340.8,255.8,337.5,252.4,333.3,252.4L333.3,252.4z"/>
	<path class="st0" d="M101.6,229.2h41.1c4.1,0,7.5-3.3,7.5-7.5c0-4.1-3.3-7.5-7.5-7.5h-41.1c-4.1,0-7.5,3.3-7.5,7.5
		S97.5,229.2,101.6,229.2z"/>
	<path class="st0" d="M167.2,258.5c0,4.1,3.3,7.5,7.5,7.5h96.7c4.1,0,7.5-3.3,7.5-7.5c0-4.1-3.3-7.5-7.5-7.5h-96.7
		C170.6,251,167.2,254.3,167.2,258.5L167.2,258.5z"/>
	<path class="st0" d="M101.6,265.9H138c4.1,0,7.5-3.3,7.5-7.5c0-4.1-3.3-7.5-7.5-7.5h-36.4c-4.1,0-7.5,3.3-7.5,7.5
		C94.1,262.6,97.5,265.9,101.6,265.9z"/>
	<path class="st0" d="M101.6,302.8h41.1c4.1,0,7.5-3.3,7.5-7.5c0-4.1-3.3-7.5-7.5-7.5h-41.1c-4.1,0-7.5,3.3-7.5,7.5
		C94.1,299.4,97.5,302.8,101.6,302.8z"/>
	<path class="st0" d="M217.8,302.8c4.1,0,7.5-3.3,7.5-7.5c0-4.1-3.3-7.5-7.5-7.5h-41.1c-4.1,0-7.5,3.3-7.5,7.5
		c0,4.1,3.3,7.5,7.5,7.5H217.8z"/>
	<path class="st0" d="M101.6,324.5c-4.1,0-7.5,3.3-7.5,7.5c0,4.2,3.3,7.5,7.5,7.5h66.6c4.1,0,7.5-3.3,7.5-7.5c0-4.2-3.3-7.5-7.5-7.5
		H101.6z"/>
	<path class="st0" d="M271.4,324.5H205c-4.1,0-7.5,3.3-7.5,7.5c0,4.2,3.3,7.5,7.5,7.5h66.4c4.1,0,7.5-3.3,7.5-7.5
		C278.9,327.8,275.5,324.5,271.4,324.5z"/>
	<path class="st0" d="M101.6,361.3c-4.1,0-7.5,3.3-7.5,7.5c0,4.2,3.3,7.5,7.5,7.5h41.1c4.1,0,7.5-3.3,7.5-7.5c0-4.2-3.3-7.5-7.5-7.5
		H101.6z"/>
	<path class="st0" d="M183.3,398.1h-81.7c-4.1,0-7.5,3.3-7.5,7.5c0,4.2,3.3,7.5,7.5,7.5h81.6c4.1,0,7.5-3.3,7.5-7.5
		C190.8,401.5,187.4,398.1,183.3,398.1z"/>
	<path class="st0" d="M271.4,398.1h-51.4c-4.1,0-7.5,3.3-7.5,7.5c0,4.2,3.3,7.5,7.5,7.5h51.4c4.1,0,7.5-3.3,7.5-7.5
		C278.9,401.5,275.5,398.1,271.4,398.1z"/>
	<path class="st0" d="M126.8,179.7c2.6,0,5-1.3,6.4-3.6c2.2-3.6,1-8.1-2.6-10.3l-27-16.3l27-16.3c3.6-2.2,4.7-6.7,2.6-10.3
		c-2.2-3.6-6.7-4.7-10.3-2.6L85.3,143c-2.2,1.4-3.6,3.8-3.6,6.4c0,2.6,1.4,5,3.6,6.4l37.7,22.7C124.2,179.3,125.5,179.7,126.8,179.7
		z"/>
	<path class="st0" d="M176.9,176c1.4,2.3,3.9,3.6,6.4,3.6c1.3,0,2.6-0.3,3.9-1.1l37.7-22.7c2.2-1.4,3.6-3.8,3.6-6.4
		c0-2.6-1.4-5-3.6-6.4l-37.7-22.7c-3.6-2.2-8.1-1-10.3,2.6c-2.2,3.6-1,8.1,2.6,10.3l27,16.3l-27,16.3
		C175.9,167.9,174.7,172.5,176.9,176z"/>
	<path class="st0" d="M147,197.5c0.4,0.1,0.9,0.1,1.2,0.1c3.6,0,6.7-2.6,7.4-6.3l13.7-81.3c0.7-4.1-2.1-8-6.1-8.6
		c-4.1-0.7-8,2.1-8.6,6.1l-13.7,81.3C140.2,192.9,143,196.8,147,197.5L147,197.5z"/>
	<path class="st0" d="M485.9,111.6l-17.8-2.6c-2-7.4-5-14.4-8.8-21.1L470,73.4c2.2-2.9,1.9-7.1-0.7-9.8l-21.5-21.5
		c-2.6-2.6-6.8-2.9-9.8-0.7l-14.5,10.6c-6.7-3.8-13.7-6.7-21.1-8.8l-2.6-17.8c-0.5-3.6-3.7-6.4-7.4-6.4H362c-3.7,0-6.9,2.7-7.4,6.4
		l-2.6,17.8c-3.8,1.1-7.5,2.3-11.2,3.9C340.5,27.8,324.7,12,305.2,12H55.3c-19.6,0-35.6,16-35.6,35.6v73.8c0,4.1,3.3,7.5,7.5,7.5
		s7.5-3.3,7.5-7.5V47.6c0-11.3,9.2-20.6,20.6-20.6h70.9l4.4,13.3c1.9,5.8,7.3,9.7,13.4,9.7h72.5c6.1,0,11.4-3.9,13.3-9.7l4.3-13.3
		h71c11.3,0,20.6,9.2,20.6,20.6c0,0.3,0.2,0.5,0.2,0.8l-9.6-7.1c-2.9-2.2-7.1-1.9-9.8,0.7l-21.5,21.6c-1.1,1.1-1.7,2.6-2,4H57.9
		c-4.1,0-7.5,3.3-7.5,7.5v364.2c0,4.1,3.3,7.5,7.5,7.5h244.8c4.1,0,7.5-3.3,7.5-7.5V228.2c0.6,0.2,1.2,0.3,1.8,0.3
		c1.6,0,3.1-0.5,4.5-1.5l14.5-10.7c6.7,3.7,13.7,6.7,21,8.8l2.6,17.8c0.5,3.6,3.7,6.4,7.4,6.4h30.4c3.7,0,6.9-2.7,7.4-6.4l2.6-17.8
		c7.4-2,14.4-5,21.1-8.8l3.2,2.3c3.3,2.5,8.1,1.8,10.5-1.6c2.5-3.3,1.8-8.1-1.6-10.5l-7.2-5.3c-2.5-1.9-5.9-1.9-8.5-0.3
		c-7.9,5-16.6,8.7-25.8,10.6c-3,0.7-5.4,3.1-5.8,6.2l-2.4,16.4h-17.5l-2.4-16.4c-0.5-3.1-2.8-5.6-5.8-6.2c-8-1.7-15.7-4.7-22.7-8.8
		c-1-0.6-2-1.2-3-1.9c-2.6-1.7-6.1-1.6-8.5,0.3l-13.3,9.9l-4.7-4.7l-7.7-7.7l9.9-13.3c1.9-2.5,1.9-5.9,0.3-8.5
		c-5.1-8-8.7-16.6-10.6-25.8c-0.7-3-3.2-5.4-6.2-5.8l-16.4-2.4v-17.5l16.4-2.4c3.1-0.5,5.6-2.8,6.2-5.8c2-9.2,5.6-17.8,10.7-25.8
		c1.7-2.6,1.6-6-0.3-8.5l-9.9-13.3l12.3-12.3l13.3,9.9c2.5,1.9,5.9,1.9,8.5,0.3c7.9-5.1,16.6-8.7,25.8-10.6c3-0.7,5.4-3.1,5.8-6.2
		l2.3-16.7h17.5l2.4,16.4c0.5,3.1,2.8,5.6,5.8,6.2c9.2,2,17.8,5.6,25.8,10.6c2.6,1.7,6,1.6,8.5-0.3l13.3-9.9l12.3,12.3l-9.9,13.3
		c-1.9,2.5-1.9,5.9-0.3,8.5c5,7.9,8.7,16.6,10.7,25.8c0.7,3,3.2,5.4,6.2,5.8l16.4,2.4v17.5l-16.4,2.4c-3.1,0.5-5.6,2.8-6.2,5.8
		c-2,9.2-5.6,17.8-10.7,25.8c-1.7,2.6-1.6,6,0.3,8.5l9.9,13.3l-8.1,8.1c-2.9,2.9-2.9,7.7,0,10.6c2.9,2.9,7.7,2.9,10.6,0l12.6-12.6
		c2.6-2.6,2.9-6.7,0.7-9.8l-10.7-14.4c3.8-6.7,6.7-13.7,8.8-21.1l17.8-2.6c3.6-0.5,6.4-3.7,6.4-7.4v-30.4
		C492.3,115.3,489.6,112.1,485.9,111.6L485.9,111.6z M215.8,35.1h-71.1l-2.6-8h76.4L215.8,35.1z M286.3,108.9l-17.8,2.6
		c-3.6,0.5-6.4,3.7-6.4,7.4v30.4c0,3.7,2.7,6.9,6.4,7.4l17.8,2.6c2,7.4,5,14.4,8.8,21.1L284.4,195c-2.2,2.9-1.9,7.1,0.7,9.8
		l10.1,10.1v216.9H65.3V82.6h225.8l3.9,5.3C291.3,94.5,288.3,101.5,286.3,108.9z"/>
	<path class="st0" d="M377.2,81.3c-29.2,0-52.9,23.7-52.9,52.9s23.7,52.9,52.9,52.9c29.2,0,52.9-23.7,52.9-52.9
		C430.2,105,406.3,81.3,377.2,81.3z M377.2,172.1c-20.9,0-37.9-17-37.9-37.9s17-37.9,37.9-37.9s37.9,17,37.9,37.9
		S398.1,172.1,377.2,172.1z"/>
</g>
</svg>
