<?xml version="1.0" encoding="utf-8"?>
<!-- Generator: Adobe Illustrator 26.0.0, SVG Export Plug-In . SVG Version: 6.00 Build 0)  -->
<svg version="1.1" id="Layer_1" xmlns="http://www.w3.org/2000/svg" xmlns:xlink="http://www.w3.org/1999/xlink" x="0px" y="0px"
	 viewBox="0 0 281.7 62" style="enable-background:new 0 0 281.7 62;" xml:space="preserve">
<style type="text/css">
	.st0{fill:#64C9D6;}
	.st1{fill-rule:evenodd;clip-rule:evenodd;fill:#64C9D6;}
	.st2{fill:#231F20;}
</style>
<polygon points="150.7,31.3 150.7,9.7 157.3,9.7 157.3,18.1 165.9,9.7 173.9,9.7 164.7,18.7 174.3,31.3 166.9,31.3 160.4,22.7 
	157.3,25.8 157.3,31.3 "/>
<path d="M125.9,26.9V14.2c0-3,1.9-4.4,5.6-4.4h15.4v3.9h-13.3c-0.8,0-1.1,0.3-1.1,0.9v11.9c0,0.6,0.4,0.9,1.1,0.9h13.3v3.9h-15.4
	C127.7,31.3,125.9,29.9,125.9,26.9z"/>
<path d="M96.9,31.3l9.3-21.6h8.2l9.3,21.6h-6.4c-3.2-7.4-3.5-8.1-7-16.2c-3.6,8.4-3.7,8.4-7,16.2H96.9z"/>
<polygon points="75.8,13.7 75.8,9.7 100,9.7 100,13.7 91.2,13.7 91.2,31.3 84.6,31.3 84.6,13.7 "/>
<path d="M52.6,31.3v-3.9h13.9c0.8,0,1.1-0.3,1.1-0.9v-3.6c0-0.6-0.4-0.9-1.1-0.9h-8.3c-3.7,0-5.6-1.5-5.6-4.4v-3.4
	c0-3,1.9-4.4,5.6-4.4h14.4v3.9H60.2c-0.8,0-1.1,0.3-1.1,0.9v2.6c0,0.6,0.4,0.9,1.1,0.9h8.3c3.7,0,5.6,1.5,5.6,4.4v4.4
	c0,3-1.9,4.5-5.6,4.5H52.6z"/>
<path d="M52.6,38v-0.8h6.8V38h-2.7v5.6h-1.4V38H52.6z M73,43.6v-6.4h6V38h-4.6v1.8h4.1v0.8h-4.1v2.2h4.6v0.8L73,43.6z M92.8,42.4
	v-4.1c0-0.8,0.5-1.2,1.5-1.2h4.5V38h-4.2c-0.3,0-0.4,0.1-0.4,0.3v4.2c0,0.2,0.1,0.3,0.4,0.3h4.2v0.8h-4.5
	C93.3,43.6,92.8,43.2,92.8,42.4L92.8,42.4z M112.7,43.6v-6.4h1.4v2.6h3.7v-2.6h1.4v6.4h-1.4v-3H114v3H112.7z M133.2,43.6v-6.4h1.6
	l3.6,4.8v-4.8h1.4v6.4h-1.6l-3.6-4.8v4.8H133.2z M153.8,42.4v-4.1c0-0.8,0.5-1.2,1.5-1.2h3.5c1,0,1.5,0.4,1.5,1.2v4.1
	c0,0.8-0.5,1.2-1.5,1.2h-3.5C154.3,43.6,153.8,43.2,153.8,42.4z M155.2,42.4c0,0.2,0.1,0.3,0.4,0.3h2.9c0.3,0,0.4-0.1,0.4-0.3v-4.1
	c0-0.2-0.1-0.3-0.4-0.3h-2.9c-0.3,0-0.4,0.1-0.4,0.3V42.4z M174.4,43.5v-6.4h1.4v5.6h4.3v0.8L174.4,43.5z M193.5,42.4v-4.1
	c0-0.8,0.5-1.2,1.5-1.2h3.5c1,0,1.5,0.4,1.5,1.2v4.1c0,0.8-0.5,1.2-1.5,1.2H195C194,43.6,193.5,43.2,193.5,42.4L193.5,42.4z
	 M194.9,42.4c0,0.2,0.1,0.3,0.4,0.3h2.9c0.3,0,0.4-0.1,0.4-0.3v-4.1c0-0.2-0.1-0.3-0.4-0.3h-2.9c-0.3,0-0.4,0.1-0.4,0.3V42.4z
	 M214.1,42.4v-4.1c0-0.8,0.5-1.2,1.5-1.2h4.5V38h-4.2c-0.3,0-0.4,0.1-0.4,0.3v4.2c0,0.2,0.1,0.3,0.4,0.3h3.2v-2.2h-1.7v-0.8h3v3.8
	h-4.9C214.5,43.6,214,43.2,214.1,42.4L214.1,42.4z M234.5,43.5v-6.4h1.4v6.4L234.5,43.5z M249.9,43.5v-6.4h5.9V38h-4.6v1.8h4.1v0.8
	h-4.1v2.2h4.6v0.8L249.9,43.5z M269.7,43.5v-0.8h4.4c0.3,0,0.4-0.1,0.4-0.3v-1.5c0-0.2-0.1-0.3-0.4-0.3h-2.9c-1,0-1.5-0.4-1.5-1.2
	v-1.1c0-0.8,0.5-1.2,1.5-1.2h4.2V38h-3.9c-0.3,0-0.4,0.1-0.4,0.3v1.1c0,0.2,0.1,0.3,0.4,0.3h2.9c1,0,1.5,0.4,1.5,1.2v1.5
	c0,0.8-0.5,1.2-1.5,1.2L269.7,43.5z"/>
<path class="st0" d="M177.8,31.3V9.8h16c3.7,0,5.6,1.5,5.6,4.4v4.5c0,2.6-1.5,4.1-4.4,4.4l5.4,8.2h-7.1l-5.4-8.2h-3.5v8.2H177.8z
	 M184.3,19.2h7.4c0.8,0,1.1-0.3,1.1-0.9v-3.7c0-0.6-0.4-0.9-1.1-0.9h-7.4L184.3,19.2z M203.6,26.9V14.2c0-3,1.9-4.4,5.6-4.4h11.5
	c3.7,0,5.6,1.5,5.6,4.4v12.7c0,3-1.9,4.4-5.6,4.4h-11.5C205.4,31.3,203.6,29.8,203.6,26.9z M210.1,26.5c0,0.6,0.4,0.9,1.1,0.9h7.2
	c0.8,0,1.1-0.3,1.1-0.9V14.6c0-0.6-0.4-0.9-1.1-0.9h-7.2c-0.8,0-1.1,0.3-1.1,0.9V26.5z M230.7,26.9V14.2c0-3,1.9-4.4,5.6-4.4h11.4
	c3.7,0,5.6,1.5,5.6,4.4v12.7c0,3-1.9,4.5-5.6,4.4h-11.4C232.6,31.3,230.7,29.8,230.7,26.9L230.7,26.9z M237.3,26.5
	c0,0.6,0.4,0.9,1.1,0.9h7.2c0.8,0,1.1-0.3,1.1-0.9V14.6c0-0.6-0.4-0.9-1.1-0.9h-7.2c-0.8,0-1.1,0.3-1.1,0.9V26.5z M257.9,31.3V9.8
	h20.6v3.9h-14.1v4.7h12.4v3.9h-12.4v9L257.9,31.3z"/>
<polygon class="st1" points="110.3,21.1 115,31.3 105.6,31.3 "/>
<path class="st0" d="M24.3,3l18.5,10.7c0.8,0.5,1.1,1.5,0.6,2.3c-0.1,0.2-0.4,0.5-0.6,0.6L24.3,27.3c-0.5,0.3-1.2,0.3-1.7,0
	L4.1,16.6c-0.8-0.5-1.1-1.5-0.6-2.3c0,0,0,0,0,0c0.1-0.3,0.4-0.5,0.6-0.6L22.6,3C23.1,2.7,23.8,2.7,24.3,3z M38.6,15.1L23.4,6.3
	L8.2,15.1L23.4,24L38.6,15.1z"/>
<path d="M41.1,24.5c0.8-0.5,1.8-0.2,2.3,0.6c0.5,0.8,0.2,1.8-0.6,2.3L24.3,38.1c-0.5,0.3-1.2,0.3-1.7,0l-16-9.3v6.6l16.9,9.8
	L41.1,35c0.8-0.5,1.8-0.2,2.3,0.6c0,0,0,0,0,0c0.2,0.3,0.2,0.5,0.2,0.8l0,0v10.4c0,0.6-0.4,1.2-0.9,1.5L24.3,59
	c-0.5,0.3-1.2,0.3-1.7,0L4.1,48.3C3.3,47.8,3,46.8,3.4,46c0.5-0.8,1.5-1.1,2.3-0.6l17.7,10.3l16.9-9.8v-6.6l-16,9.3
	c-0.5,0.3-1.2,0.3-1.7,0L4.2,37.9c-0.6-0.3-0.9-0.9-0.9-1.5V26l0,0c0-0.3,0.1-0.6,0.2-0.8c0.5-0.8,1.5-1.1,2.3-0.6c0,0,0,0,0,0
	l17.7,10.2L41.1,24.5z"/>
<rect x="52.6" y="48.3" width="225.9" height="0.2"/>
<path class="st2" d="M56.4,55.4H57v0.1c0,0.2,0,0.4,0.1,0.6c0,0.1,0.1,0.2,0.2,0.3c0.1,0,0.3,0.1,0.4,0.1c0.2,0,0.5,0,1.1,0
	c0.2,0,0.5,0,0.7,0c0.1,0,0.3-0.1,0.4-0.2c0-0.1,0.1-0.1,0.1-0.2c0-0.1,0-0.3,0-0.4c0-0.2,0-0.4-0.1-0.6c-0.1-0.1-0.3-0.2-0.5-0.2
	l-1.6-0.1c-0.4,0-0.7-0.1-1-0.3c-0.2-0.2-0.3-0.5-0.3-0.9c0-0.2,0-0.4,0.1-0.6c0.1-0.2,0.2-0.3,0.3-0.4c0.1-0.1,0.3-0.1,0.4-0.2
	c0.3,0,0.7,0,1,0h0.2c0.4,0,0.8,0,1.1,0.1c0.2,0,0.4,0.1,0.5,0.2c0.1,0.1,0.2,0.2,0.2,0.3c0.1,0.2,0.1,0.3,0.1,0.5c0,0,0,0.1,0,0.1
	v0.1h-0.6v-0.2c0-0.1,0-0.2,0-0.4c0-0.1-0.1-0.1-0.1-0.2c-0.1-0.1-0.3-0.1-0.4-0.1c-0.2,0-0.5,0-1,0c-0.3,0-0.7,0-1,0.2
	c-0.2,0.2-0.2,0.4-0.2,0.6c0,0.2,0,0.4,0.1,0.5c0.1,0.1,0.3,0.2,0.5,0.2l1.6,0.1c0.3,0,0.6,0.1,0.9,0.3c0.2,0.2,0.3,0.5,0.3,0.8
	c0,0.2,0,0.4-0.1,0.7c0,0.1-0.1,0.3-0.2,0.4c-0.1,0.1-0.3,0.2-0.5,0.2C59.4,57,59,57,58.6,57h-0.3c-0.3,0-0.7,0-1-0.1
	c-0.2,0-0.4-0.1-0.5-0.2c-0.1-0.1-0.2-0.2-0.3-0.4c-0.1-0.2-0.1-0.4-0.1-0.6L56.4,55.4z"/>
<path class="st2" d="M70.2,56.9v-4.4h3.7v0.5h-3.1v1.4h3v0.5h-3v1.6h3.1v0.5H70.2z"/>
<path class="st2" d="M83.4,56.9v-4.4h2.3c0.4,0,0.8,0,1.2,0.2c0.2,0.2,0.4,0.5,0.3,0.8v0.7c0,0.2-0.1,0.4-0.2,0.5
	c-0.1,0.1-0.3,0.2-0.5,0.2c0.2,0,0.4,0.1,0.5,0.3c0.1,0.2,0.2,0.4,0.2,0.6v1h-0.6V56c0-0.2,0-0.5-0.2-0.6c-0.2-0.1-0.4-0.2-0.7-0.2
	H84v1.7L83.4,56.9z M85.6,52.9H84v1.8h1.7c0.3,0,0.6,0,0.8-0.1c0.1-0.1,0.2-0.3,0.2-0.5v-0.5c0-0.2,0-0.4-0.2-0.5
	C86.2,53,85.9,52.9,85.6,52.9z"/>
<path class="st2" d="M96.4,52.5H97l1.7,3.9l1.7-3.9h0.6L99,56.9h-0.7L96.4,52.5z"/>
<path class="st2" d="M110.2,56.9v-4.4h0.6v4.4H110.2z"/>
<path class="st2" d="M120.7,56.9v-4.4h0.9l2.8,3.9v-3.9h0.6v4.4H124l-2.8-3.9v3.9H120.7z"/>
<path class="st2" d="M134.6,53.9c0-0.4,0.1-0.9,0.4-1.2c0.4-0.3,1-0.4,1.5-0.3h0.7c0.5,0,1,0.1,1.4,0.3c0.3,0.2,0.5,0.5,0.4,0.9v0.2
	h-0.6v0c0-0.2-0.1-0.5-0.3-0.6c-0.3-0.1-0.7-0.2-1-0.2h-0.5c-0.3,0-0.5,0-0.8,0c-0.1,0-0.3,0.1-0.4,0.2c-0.1,0.1-0.2,0.2-0.2,0.3
	c0,0.2-0.1,0.4-0.1,0.7v1.2c0,0.2,0,0.4,0.1,0.7c0,0.1,0.1,0.2,0.2,0.3c0.1,0.1,0.3,0.1,0.4,0.2c0.3,0,0.5,0.1,0.8,0h0.5
	c0.2,0,0.5,0,0.7,0c0.1,0,0.3-0.1,0.4-0.2c0.1-0.1,0.2-0.2,0.2-0.3c0-0.2,0.1-0.4,0.1-0.6v-0.3H137v-0.4h2v0.7
	c0.1,0.4-0.1,0.9-0.4,1.2c-0.4,0.3-1,0.4-1.5,0.3h-0.7c-0.5,0-1-0.1-1.5-0.3c-0.3-0.3-0.5-0.7-0.4-1.2L134.6,53.9z"/>
<path class="st2" d="M153.6,56.9v-4.4h0.6v4.4H153.6z"/>
<path class="st2" d="M164,56.9v-4.4h0.9l2.8,3.9v-3.9h0.6v4.4h-0.9l-2.8-3.9v3.9H164z"/>
<path class="st2" d="M178.2,56.9v-4.4h0.8l2.8,3.9v-3.9h0.6v4.4h-0.9l-2.8-3.9v3.9H178.2z"/>
<path class="st2" d="M192.1,53.9c0-0.4,0.1-0.9,0.4-1.2c0.4-0.3,1-0.4,1.5-0.3h0.7c0.5,0,1,0.1,1.5,0.3c0.3,0.3,0.5,0.7,0.4,1.2v1.5
	c0,0.4-0.1,0.9-0.4,1.2c-0.4,0.3-1,0.4-1.5,0.3H194c-0.5,0-1-0.1-1.5-0.3c-0.3-0.3-0.5-0.7-0.4-1.2L192.1,53.9z M194.5,52.9h-0.3
	c-0.3,0-0.5,0-0.8,0c-0.1,0-0.3,0.1-0.4,0.2c-0.1,0.1-0.2,0.2-0.2,0.3c0,0.2-0.1,0.4-0.1,0.7v1.2c0,0.2,0,0.4,0.1,0.7
	c0,0.1,0.1,0.2,0.2,0.3c0.1,0.1,0.2,0.1,0.4,0.2c0.3,0,0.5,0.1,0.8,0h0.3c0.3,0,0.5,0,0.8,0c0.1,0,0.3-0.1,0.4-0.2
	c0.1-0.1,0.2-0.2,0.2-0.3c0.1-0.2,0.1-0.4,0.1-0.7V54c0-0.2,0-0.4-0.1-0.7c0-0.1-0.1-0.2-0.2-0.3c-0.1-0.1-0.3-0.1-0.4-0.2
	C195,52.9,194.7,52.9,194.5,52.9z"/>
<path class="st2" d="M205.6,52.5h0.6l1.7,3.9l1.7-3.9h0.6l-1.9,4.4h-0.7L205.6,52.5z"/>
<path class="st2" d="M218.2,56.9l1.9-4.4h0.9l1.9,4.4h-0.6l-0.5-1.1h-2.6l-0.5,1.1H218.2z M219.5,55.3h2.2l-1-2.4h-0.2L219.5,55.3z"
	/>
<path class="st2" d="M231,52.9v-0.5h3.9v0.5h-1.7v3.9h-0.6v-3.9H231z"/>
<path class="st2" d="M244,56.9v-4.4h0.6v4.4H244z"/>
<path class="st2" d="M254.3,53.9c0-0.4,0.1-0.9,0.4-1.2c0.4-0.3,1-0.4,1.5-0.3h0.6c0.5,0,1,0.1,1.5,0.3c0.3,0.3,0.5,0.7,0.4,1.2v1.5
	c0,0.4-0.1,0.9-0.4,1.2c-0.4,0.3-1,0.4-1.5,0.3h-0.6c-0.5,0-1-0.1-1.5-0.3c-0.3-0.3-0.5-0.7-0.4-1.2L254.3,53.9z M256.7,52.9h-0.3
	c-0.3,0-0.5,0-0.8,0c-0.1,0-0.3,0.1-0.4,0.2c-0.1,0.1-0.2,0.2-0.2,0.3c-0.1,0.2-0.1,0.4-0.1,0.7v1.2c0,0.2,0,0.4,0.1,0.7
	c0,0.1,0.1,0.2,0.2,0.3c0.1,0.1,0.2,0.1,0.4,0.2c0.3,0,0.5,0.1,0.8,0h0.3c0.3,0,0.5,0,0.8,0c0.1,0,0.3-0.1,0.4-0.2
	c0.1-0.1,0.2-0.2,0.2-0.3c0.1-0.2,0.1-0.4,0.1-0.7V54c0-0.2,0-0.4-0.1-0.7c0-0.1-0.1-0.2-0.2-0.3c-0.1-0.1-0.3-0.1-0.4-0.2
	C257.2,52.9,256.9,52.9,256.7,52.9z"/>
<path class="st2" d="M268.4,56.9v-4.4h0.9l2.8,3.9v-3.9h0.6v4.4h-0.9l-2.8-3.9v3.9H268.4z"/>
</svg>
