<?xml version="1.0" encoding="utf-8"?>
<!-- Generator: Adobe Illustrator 26.0.0, SVG Export Plug-In . SVG Version: 6.00 Build 0)  -->
<svg version="1.1" id="Layer_1" xmlns="http://www.w3.org/2000/svg" xmlns:xlink="http://www.w3.org/1999/xlink" x="0px" y="0px"
	 viewBox="0 0 512 512" style="enable-background:new 0 0 512 512;" xml:space="preserve">
<style type="text/css">
	.st0{fill:#FFFFFF;}
</style>
<path class="st0" d="M93.6,55.3c-18.7,0-33.8,15.2-33.8,33.8s15.2,33.8,33.8,33.8c18.7,0,33.9-15.2,33.9-33.8S112.2,55.3,93.6,55.3z
	 M93.6,102.7c-7.5,0-13.7-6.1-13.7-13.6S86,75.4,93.6,75.4c7.5,0,13.7,6.1,13.7,13.6S101.1,102.7,93.6,102.7z"/>
<path class="st0" d="M389.4,55.3h-89.4c-18.7,0-33.8,15.2-33.8,33.8s15.2,33.8,33.8,33.8h89.4c18.7,0,33.8-15.2,33.8-33.8
	S408,55.3,389.4,55.3z M389.4,102.7h-89.4c-7.5,0-13.7-6.1-13.7-13.6s6.1-13.6,13.7-13.6h89.4c7.5,0,13.7,6.1,13.7,13.6
	S396.9,102.7,389.4,102.7z"/>
<path class="st0" d="M181.2,55.3c-18.7,0-33.8,15.2-33.8,33.8s15.2,33.8,33.8,33.8c18.7,0,33.9-15.2,33.9-33.8
	S199.9,55.3,181.2,55.3z M181.2,102.7c-7.5,0-13.7-6.1-13.7-13.6s6.1-13.6,13.7-13.6c7.5,0,13.7,6.1,13.7,13.6
	S188.8,102.7,181.2,102.7z"/>
<path class="st0" d="M164.8,222.4c-5.4-1.3-10.9,2-12.2,7.5l-20,83.7c-1.3,5.4,2,10.9,7.5,12.2c0.8,0.2,1.6,0.3,2.4,0.3
	c4.6,0,8.7-3.1,9.8-7.7l20-83.7C173.6,229.2,170.2,223.7,164.8,222.4z"/>
<path class="st0" d="M201.8,315.9c1.9,1.7,4.3,2.6,6.7,2.6c2.8,0,5.5-1.1,7.5-3.4l28.3-31.7c4.7-5.2,4.7-13.3,0-18.5l-28.3-31.8
	c-3.7-4.2-10.1-4.5-14.2-0.8c-4.2,3.7-4.5,10.1-0.8,14.2l24.6,27.6L201,301.7C197.3,305.9,197.7,312.2,201.8,315.9L201.8,315.9z"/>
<path class="st0" d="M103.1,232.3c-4.2-3.7-10.5-3.3-14.2,0.8l-28.3,31.7c-4.7,5.2-4.7,13.3,0,18.5l28.3,31.8c2,2.2,4.8,3.4,7.5,3.4
	c2.4,0,4.8-0.8,6.7-2.6c4.2-3.7,4.5-10.1,0.8-14.2l-24.6-27.6l24.6-27.6C107.6,242.4,107.2,236,103.1,232.3L103.1,232.3z"/>
<path class="st0" d="M489.4,339.5h-3.7c-2-6.4-4.5-12.5-7.6-18.3l2.7-2.7c4.3-4.2,6.6-9.9,6.6-15.9c0-6.1-2.3-11.7-6.6-16l-5.2-5.2
	V66.5c0-30.1-21.2-54.5-47.3-54.5H47.3C21.2,12,0,36.5,0,66.5v281.9c0,30.1,21.2,54.5,47.3,54.5h59.2c5.6,0,10.1-4.5,10.1-10.1
	s-4.5-10.1-10.1-10.1H47.3c-14.7,0-27.1-15.7-27.1-34.4v-183h435.2v101.9c-1.1-0.2-2.3-0.3-3.5-0.3c0,0,0,0,0,0
	c-6,0-11.7,2.4-15.9,6.6l-2.7,2.7c-6-3.2-12.2-5.7-18.6-7.7v-3.6c0-12.5-10.1-22.6-22.6-22.6h-18.2c-12.5,0-22.6,10.1-22.6,22.6v3.8
	c-6.3,2-12.4,4.5-18.2,7.6l-2.6-2.6c-4.2-4.3-9.9-6.6-15.9-6.6c0,0,0,0,0,0c-6,0-11.7,2.3-16,6.6l-12.9,12.9c-4.3,4.3-6.6,10-6.6,16
	c0,6,2.4,11.7,6.6,15.9l2.8,2.8c-3,5.8-5.5,11.8-7.4,18H277c-12.5,0-22.6,10.1-22.6,22.6v18.3c0,0.8,0,1.6,0.1,2.4h-58.7
	c-5.6,0-10.1,4.5-10.1,10.1s4.5,10.1,10.1,10.1H277h3.9c2,6.3,4.5,12.3,7.5,18.2l-2.7,2.7c-8.8,8.8-8.8,23.1,0,31.9l12.9,12.9
	c4.2,4.3,9.9,6.6,15.9,6.6h0c6,0,11.7-2.3,16-6.6l2.7-2.7c5.9,3.1,12,5.6,18.2,7.6v3.9c0,12.5,10.1,22.6,22.6,22.6h18.3
	c12.5,0,22.6-10.1,22.6-22.6v-3.9c6.3-2,12.4-4.5,18.3-7.6l2.7,2.7c4.2,4.3,9.9,6.6,15.9,6.6h0c6,0,11.7-2.3,16-6.6l12.9-12.9
	c4.3-4.2,6.6-9.9,6.6-15.9c0-6.1-2.3-11.7-6.6-16l-2.7-2.7c3.1-5.8,5.6-11.9,7.5-18.2h3.8c12.5,0,22.6-10.1,22.6-22.6v-18.3
	C512,349.7,501.9,339.5,489.4,339.5L489.4,339.5z M20.2,145.3V66.5c0-18.6,12.4-34.4,27.1-34.4h380.9c14.7,0,27.1,15.7,27.1,34.4
	v78.7L20.2,145.3L20.2,145.3z M491.8,380.4c0,1.3-1.1,2.4-2.4,2.4h-11.5c-4.7,0-8.8,3.2-9.8,7.8c-2.2,9.5-5.9,18.5-11.1,26.8
	c-2.5,4-1.9,9.2,1.4,12.5l8.2,8.2c0.6,0.6,0.7,1.3,0.7,1.7c0,0.5-0.1,1.1-0.7,1.7l-12.9,12.9c-0.6,0.6-1.3,0.7-1.7,0.7c0,0,0,0,0,0
	c-0.5,0-1.1-0.1-1.7-0.7l-8.2-8.2c-3.3-3.3-8.5-3.9-12.5-1.4c-8.3,5.2-17.3,9-26.9,11.1c-4.6,1-7.8,5.1-7.8,9.8v11.6
	c0,1.3-1.1,2.4-2.4,2.4H374c-1.3,0-2.4-1.1-2.4-2.4v-11.6c0-4.7-3.3-8.8-7.9-9.8c-9.4-2.1-18.5-5.9-26.9-11.1
	c-1.6-1-3.5-1.5-5.3-1.5c-2.6,0-5.2,1-7.1,3l-8.2,8.2c-0.6,0.6-1.3,0.7-1.7,0.7c0,0,0,0,0,0c-0.5,0-1.1-0.1-1.7-0.7l-12.9-12.9
	c-0.9-0.9-0.9-2.5,0-3.4l8.2-8.2c3.3-3.3,3.9-8.5,1.4-12.5c-5.2-8.2-9-17.3-11.1-26.8c-1-4.6-5.1-7.8-9.8-7.8H277
	c-1.3,0-2.4-1.1-2.4-2.4v-18.3c0-1.3,1.1-2.4,2.4-2.4h11.6c4.7,0,8.8-3.3,9.8-7.8c2.2-9.5,5.9-18.4,11-26.7c2.5-4,1.9-9.1-1.4-12.5
	l-8.2-8.3c-0.6-0.6-0.7-1.2-0.7-1.7c0-0.4,0.1-1.1,0.7-1.7l12.9-12.9c0.6-0.6,1.3-0.7,1.7-0.7h0c0.5,0,1.1,0.1,1.7,0.7l8.1,8.1
	c3.3,3.3,8.5,3.9,12.5,1.4c8.2-5.2,17.3-9,26.8-11.2c4.6-1.1,7.8-5.1,7.8-9.8v-11.5c0-1.3,1.1-2.4,2.4-2.4h18.2
	c1.3,0,2.4,1.1,2.4,2.4v11.4c0,4.7,3.3,8.8,7.9,9.8c9.6,2.1,18.7,5.9,27.2,11.2c4,2.5,9.1,1.9,12.5-1.4l8.2-8.2
	c0.6-0.6,1.2-0.7,1.7-0.7h0c0.4,0,1.1,0.1,1.7,0.7l12.9,12.9c0.6,0.6,0.7,1.3,0.7,1.7c0,0.5-0.1,1.1-0.7,1.7l-8.2,8.2
	c-3.3,3.3-3.9,8.5-1.4,12.5c5.2,8.3,9,17.3,11.2,26.9c1,4.6,5.1,7.8,9.8,7.8h11.5c1.3,0,2.4,1.1,2.4,2.4L491.8,380.4z"/>
<path class="st0" d="M383.2,309.7c-34,0-61.6,27.6-61.6,61.6c0,34,27.6,61.6,61.6,61.6c34,0,61.6-27.6,61.6-61.6
	C444.8,337.3,417.2,309.7,383.2,309.7z M383.2,412.7c-22.9,0-41.5-18.6-41.5-41.4c0-22.8,18.6-41.4,41.5-41.4
	c22.8,0,41.4,18.6,41.4,41.4C424.6,394.1,406,412.7,383.2,412.7z"/>
<path class="st0" d="M151.5,382.8h-0.2c-5.6,0-10.1,4.5-10.1,10.1s4.5,10.1,10.1,10.1h0.2c5.6,0,10.1-4.5,10.1-10.1
	S157,382.8,151.5,382.8z"/>
</svg>
